<?xml version="1.0" encoding="UTF-8" standalone="no"?>
<!-- Created with Inkscape (http://www.inkscape.org/) -->

<svg
   xmlns:dc="http://purl.org/dc/elements/1.1/"
   xmlns:cc="http://creativecommons.org/ns#"
   xmlns:rdf="http://www.w3.org/1999/02/22-rdf-syntax-ns#"
   xmlns:svg="http://www.w3.org/2000/svg"
   xmlns="http://www.w3.org/2000/svg"
   xmlns:xlink="http://www.w3.org/1999/xlink"
   xmlns:sodipodi="http://sodipodi.sourceforge.net/DTD/sodipodi-0.dtd"
   xmlns:inkscape="http://www.inkscape.org/namespaces/inkscape"
   width="128"
   height="128"
   viewBox="0 0 33.866666 33.866668"
   version="1.1"
   id="svg8"
   sodipodi:docname="icon-blue-shaded.svg"
   inkscape:version="0.92.2 2405546, 2018-03-11">
  <defs
     id="defs2">
    <linearGradient
       inkscape:collect="always"
       id="linearGradient1063">
      <stop
         style="stop-color:#8790ab;stop-opacity:1"
         offset="0"
         id="stop3762" />
      <stop
         style="stop-color:#d9e3ff;stop-opacity:0.98039216"
         offset="1"
         id="stop3764" />
    </linearGradient>
    <linearGradient
       id="linearGradient1039-6"
       inkscape:collect="always">
      <stop
         id="stop1035"
         offset="0"
         style="stop-color:#101520;stop-opacity:1" />
      <stop
         id="stop1037"
         offset="1"
         style="stop-color:#2d4369;stop-opacity:0.98039216" />
    </linearGradient>
    <linearGradient
       inkscape:collect="always"
       id="linearGradient1013-5-2">
      <stop
         style="stop-color:#4e6199;stop-opacity:1"
         offset="0"
         id="stop1009" />
      <stop
         style="stop-color:#a0b9dc;stop-opacity:0.98039216"
         offset="1"
         id="stop1011" />
    </linearGradient>
    <linearGradient
       inkscape:collect="always"
       xlink:href="#linearGradient1039-6"
       id="linearGradient1023"
       x1="1.3975827"
       y1="91.664909"
       x2="52.666016"
       y2="36.664906"
       gradientUnits="userSpaceOnUse" />
    <linearGradient
       inkscape:collect="always"
       xlink:href="#linearGradient1063"
       id="linearGradient1047"
       x1="10.669605"
       y1="276.48657"
       x2="29.148748"
       y2="288.34555"
       gradientUnits="userSpaceOnUse" />
    <linearGradient
       inkscape:collect="always"
       xlink:href="#linearGradient1013-5-2"
       id="linearGradient1065"
       x1="33.712055"
       y1="-1.5675236"
       x2="102.62779"
       y2="48.789619"
       gradientUnits="userSpaceOnUse" />
  </defs>
  <sodipodi:namedview
     id="base"
     pagecolor="#ffffff"
     bordercolor="#666666"
     borderopacity="1.0"
     inkscape:pageopacity="0.0"
     inkscape:pageshadow="2"
     inkscape:zoom="3.959798"
     inkscape:cx="27.842017"
     inkscape:cy="63.572759"
     inkscape:document-units="mm"
     inkscape:current-layer="layer1"
     showgrid="false"
     units="px"
     inkscape:window-width="956"
     inkscape:window-height="1153"
     inkscape:window-x="2880"
     inkscape:window-y="45"
     inkscape:window-maximized="0" />
  <metadata
     id="metadata5">
    <rdf:RDF>
      <cc:Work
         rdf:about="">
        <dc:format>image/svg+xml</dc:format>
        <dc:type
           rdf:resource="http://purl.org/dc/dcmitype/StillImage" />
        <dc:title />
      </cc:Work>
    </rdf:RDF>
  </metadata>
  <g
     inkscape:label="Layer 1"
     inkscape:groupmode="layer"
     id="layer1"
     transform="translate(0,-263.13332)">
    <path
       style="opacity:1;fill:url(#linearGradient1047);fill-opacity:1.0;stroke:none;stroke-width:5.05768633;stroke-linecap:square;stroke-linejoin:round;stroke-miterlimit:4.30000019;stroke-dasharray:none;stroke-opacity:1;paint-order:markers stroke fill"
       d="m 16.33492,263.55087 c -6.4000001,0.14866 -12.4177752,4.44468 -14.7081771,10.41036 -2.40035066,5.86541 -1.00182591,13.03275 3.4411648,17.55537 4.2905163,4.56566 11.3592313,6.35031 17.2836993,4.14703 0,0 -0.388811,-2.56204 -1.998033,-3.76123 0,0 4.135327,-0.0754 5.579136,-3.6465 -4.298672,2.19379 -8.904334,-1.87452 -8.541308,-7.67764 v 0 c 0,0 4.503924,0.96969 10.275789,-1.07318 2.574964,-0.94494 2.853205,-2.86878 2.735087,-3.60111 -1.039434,-5.57515 -7.027551,-12.3531 -14.067358,-12.3531 z"
       id="path922"
       inkscape:connector-curvature="0"
       sodipodi:nodetypes="ccccccccccc" />
    <path
       style="fill:url(#linearGradient1023);fill-opacity:1;fill-rule:evenodd;stroke:none;stroke-width:0.99999994px;stroke-linecap:butt;stroke-linejoin:miter;stroke-opacity:1"
       d="M 61.738281,1.578125 C 37.549305,2.1399896 14.805075,18.376376 6.1484375,40.923828 -2.923754,63.092307 2.3618911,90.182024 19.154297,107.27539 c 6.541533,6.96103 14.793542,12.20849 23.779297,15.44922 15.138925,5.02441 23.136997,-7.76088 23.136997,-7.76088 C 25.26702,102.37443 55.546826,64.16548 55.546826,64.16548 43.03971,62.787341 33.035156,67.732422 33.035156,67.732422 39.0173,43.178872 66.943328,42.48397 66.943328,42.48397 L 67.411803,27.772524 76.427734,28 92.666016,13.384766 C 83.86865,6.316114 73.173051,1.578125 61.738281,1.578125 Z"
       transform="matrix(0.26458333,0,0,0.26458333,0,263.13332)"
       id="path977"
       inkscape:connector-curvature="0"
       sodipodi:nodetypes="cccccccccccc" />
    <path
       style="opacity:1;fill:url(#linearGradient1065);fill-opacity:1;fill-rule:evenodd;stroke:none;stroke-width:0.99999994px;stroke-linecap:butt;stroke-linejoin:miter;stroke-opacity:1"
       d="M 61.810547,1.5800781 C 52.01351,2.0648697 35.942855,5.5688614 26.390625,22.185547 c 0,0 41.334023,-13.4519791 55.988281,32.027901 0,0 13.823478,-9.349284 32.570314,-5.56501 -0.0129,-0.131109 -0.0243,-0.264945 -0.043,-0.38086 C 110.98125,27.215312 88.386255,1.626616 61.810547,1.5800781 Z"
       transform="matrix(0.26458333,0,0,0.26458333,0,263.13332)"
       id="path964"
       inkscape:connector-curvature="0"
       sodipodi:nodetypes="cccccc" />
    <path
       style="fill:#000000;fill-opacity:1;fill-rule:evenodd;stroke:none;stroke-width:0.26458332px;stroke-linecap:butt;stroke-linejoin:miter;stroke-opacity:1"
       d="m 30.380239,275.82949 c -0.352142,-0.74114 -4.519941,-0.33742 -4.902691,0.23426 -0.568586,0.79084 1.978589,2.11638 2.713822,2.14396 1.118112,0.0594 2.430546,-1.56084 2.188869,-2.37822 z"
       id="path962"
       inkscape:connector-curvature="0"
       sodipodi:nodetypes="cccc" />
    <ellipse
       style="opacity:1;fill:#020000;fill-opacity:1;stroke:none;stroke-width:5.02688742;stroke-linecap:square;stroke-linejoin:round;stroke-miterlimit:4.30000019;stroke-dasharray:none;stroke-opacity:1;paint-order:markers stroke fill"
       id="path975"
       cx="-220.52415"
       cy="122.93533"
       rx="1.6433899"
       ry="2.1078787"
       transform="matrix(0.38449963,-0.92312515,0.82827289,0.56032492,0,0)" />
  </g>
</svg>
